<svg xmlns="http://www.w3.org/2000/svg" viewBox="0 0 70 70" width="70" height="70">
	<style>
		tspan { white-space:pre }
		.shp0 { fill: #030303;stroke: #ffffff;stroke-width: 3 } 
	</style>
	<path id="Ellipse 5" class="shp0" d="M34.92 3.38C35.69 3.38 36.32 4.01 36.32 4.78C36.32 5.55 35.69 6.18 34.92 6.18C34.15 6.18 33.52 5.55 33.52 4.78C33.52 4.01 34.15 3.38 34.92 3.38ZM34.92 63.58C35.69 63.58 36.32 64.21 36.32 64.98C36.32 65.75 35.69 66.38 34.92 66.38C34.15 66.38 33.52 65.75 33.52 64.98C33.52 64.21 34.15 63.58 34.92 63.58ZM43.08 4.46C43.82 4.66 44.27 5.42 44.07 6.17C43.87 6.92 43.1 7.36 42.35 7.16C41.6 6.96 41.16 6.19 41.36 5.45C41.56 4.7 42.33 4.26 43.08 4.46ZM27.5 62.61C28.24 62.81 28.69 63.57 28.49 64.32C28.28 65.07 27.52 65.51 26.77 65.31C26.02 65.11 25.58 64.34 25.78 63.6C25.98 62.85 26.75 62.41 27.5 62.61ZM50.67 7.61C51.34 7.99 51.57 8.85 51.19 9.52C50.8 10.19 49.94 10.42 49.27 10.03C48.6 9.65 48.38 8.79 48.76 8.12C49.15 7.45 50 7.22 50.67 7.61ZM20.57 59.74C21.24 60.13 21.47 60.98 21.09 61.65C20.7 62.32 19.84 62.55 19.17 62.17C18.5 61.78 18.28 60.92 18.66 60.25C19.05 59.58 19.9 59.36 20.57 59.74ZM57.2 12.62C57.75 13.16 57.75 14.05 57.2 14.6C56.65 15.14 55.77 15.14 55.22 14.6C54.67 14.05 54.67 13.16 55.22 12.62C55.77 12.07 56.65 12.07 57.2 12.62ZM14.63 55.18C15.18 55.73 15.18 56.62 14.63 57.16C14.08 57.71 13.2 57.71 12.65 57.16C12.1 56.62 12.1 55.73 12.65 55.18C13.2 54.64 14.08 54.64 14.63 55.18ZM62.2 19.14C62.59 19.81 62.36 20.67 61.69 21.06C61.02 21.44 60.17 21.21 59.78 20.54C59.39 19.87 59.62 19.02 60.29 18.63C60.96 18.24 61.82 18.47 62.2 19.14ZM10.07 49.24C10.46 49.91 10.23 50.77 9.56 51.16C8.89 51.54 8.03 51.31 7.64 50.64C7.26 49.97 7.49 49.12 8.16 48.73C8.83 48.34 9.68 48.57 10.07 49.24ZM65.35 26.74C65.55 27.49 65.11 28.26 64.36 28.46C63.61 28.66 62.85 28.22 62.65 27.47C62.45 26.72 62.89 25.95 63.64 25.75C64.38 25.55 65.15 26 65.35 26.74ZM7.2 42.32C7.4 43.07 6.96 43.84 6.21 44.04C5.46 44.24 4.7 43.8 4.5 43.05C4.3 42.3 4.74 41.53 5.49 41.33C6.23 41.13 7 41.58 7.2 42.32ZM66.42 34.9C66.42 35.67 65.79 36.3 65.02 36.3C64.25 36.3 63.62 35.67 63.62 34.9C63.62 34.13 64.25 33.5 65.02 33.5C65.79 33.5 66.42 34.13 66.42 34.9ZM6.22 34.9C6.22 35.67 5.59 36.3 4.82 36.3C4.05 36.3 3.42 35.67 3.42 34.9C3.42 34.13 4.05 33.5 4.82 33.5C5.59 33.5 6.22 34.13 6.22 34.9ZM65.35 43.05C65.15 43.8 64.38 44.24 63.63 44.04C62.88 43.84 62.44 43.08 62.64 42.33C62.84 41.58 63.61 41.14 64.36 41.34C65.1 41.54 65.55 42.31 65.35 43.05ZM7.2 27.47C7 28.22 6.23 28.66 5.48 28.46C4.74 28.26 4.29 27.5 4.49 26.75C4.69 26 5.46 25.56 6.21 25.76C6.95 25.96 7.4 26.73 7.2 27.47ZM62.2 50.65C61.81 51.32 60.95 51.55 60.28 51.17C59.61 50.78 59.38 49.92 59.77 49.25C60.16 48.58 61.01 48.35 61.68 48.74C62.35 49.13 62.58 49.98 62.2 50.65ZM10.06 20.55C9.67 21.22 8.82 21.45 8.15 21.07C7.48 20.68 7.25 19.82 7.64 19.15C8.02 18.48 8.88 18.25 9.55 18.64C10.22 19.03 10.45 19.88 10.06 20.55ZM57.19 57.18C56.64 57.72 55.75 57.72 55.21 57.18C54.66 56.63 54.66 55.74 55.21 55.2C55.75 54.65 56.64 54.65 57.19 55.2C57.73 55.74 57.73 56.63 57.19 57.18ZM14.62 14.61C14.07 15.16 13.19 15.16 12.64 14.61C12.09 14.06 12.09 13.18 12.64 12.63C13.19 12.08 14.07 12.08 14.62 12.63C15.17 13.18 15.17 14.06 14.62 14.61ZM50.66 62.18C49.99 62.57 49.13 62.34 48.75 61.67C48.36 61 48.59 60.14 49.26 59.76C49.93 59.37 50.79 59.6 51.17 60.27C51.56 60.94 51.33 61.8 50.66 62.18ZM20.56 10.05C19.89 10.43 19.03 10.21 18.65 9.54C18.26 8.87 18.49 8.01 19.16 7.62C19.83 7.24 20.69 7.47 21.07 8.14C21.46 8.81 21.23 9.66 20.56 10.05ZM43.06 65.33C42.31 65.53 41.54 65.09 41.34 64.34C41.14 63.59 41.59 62.82 42.33 62.62C43.08 62.42 43.85 62.87 44.05 63.61C44.25 64.36 43.81 65.13 43.06 65.33ZM27.48 7.18C26.73 7.38 25.96 6.94 25.76 6.19C25.56 5.44 26.01 4.68 26.75 4.48C27.5 4.27 28.27 4.72 28.47 5.47C28.67 6.21 28.23 6.98 27.48 7.18Z" />
	<path id="Rectangle 15" class="shp0" d="M34 0L36 0L36 9L34 9L34 0ZM34 61L36 61L36 70L34 70L34 61ZM0 36L0 34L9 34L9 36L0 36ZM61 36L61 34L70 34L70 36L61 36Z" />
	<path id="Shape 9" class="shp0" d="M17 36L17 34L36 34L36 36L17 36ZM36 36L34 36L34 11L36 11L36 36Z" />
	<path id="Ellipse 6" class="shp0" d="M35.02 31.5C36.95 31.5 38.52 33.07 38.52 35C38.52 36.93 36.95 38.5 35.02 38.5C33.09 38.5 31.52 36.93 31.52 35C31.52 33.07 33.09 31.5 35.02 31.5Z" />
</svg>