<svg xmlns="http://www.w3.org/2000/svg" viewBox="0 0 60 64" width="60" height="64">
	<style>
		tspan { white-space:pre }
		.shp0 { fill: none;stroke: #000000;stroke-width: 3 } 
	</style>
	<g id="Group 2">
		<path id="Rounded Rectangle 1" fill-rule="evenodd" class="shp0" d="M40.12 6.93L57.93 24.63C60.67 27.35 60.67 31.75 57.93 34.47L30.72 61.51C29.7 62.53 28.45 63.16 27.13 63.42C26.25 63.8 25.28 64.01 24.25 64L7.28 63.85C3.38 63.81 0.18 60.64 0.15 56.76L-0.01 39.89C-0.03 37.67 0.99 35.7 2.6 34.43C2.73 34.27 2.87 34.12 3.02 33.98L30.23 6.93C32.96 4.22 37.39 4.22 40.12 6.93ZM9.9 46.77C7.99 48.67 7.99 51.75 9.9 53.65C11.81 55.55 14.91 55.55 16.83 53.65C18.74 51.75 18.74 48.67 16.83 46.77C14.91 44.86 11.81 44.86 9.9 46.77Z" />
		<path id="Shape 14" class="shp0" d="M15.22 56.33C15.22 56.33 4.02 46.25 4.02 25.03C4.02 3.82 8.92 0 11.02 0C13.12 0 16.97 4.17 17.32 21.56" />
	</g>
</svg>