<svg xmlns="http://www.w3.org/2000/svg" viewBox="0 0 49 70" width="49" height="70">
	<style>
		tspan { white-space:pre }
		.shp0 { fill: #ffffff } 
		.shp1 { fill: none;stroke: #ffffff;stroke-width: 3 } 
	</style>
	<g id="flower">
		<path id="Shape 4" class="shp0" d="M19.91 33.32L21.98 33.32L21.98 70L19.91 70L19.91 33.32Z" />
		<path id="Ellipse 3" class="shp1" d="M8.05 21.64C10.36 19.36 14.11 19.36 16.42 21.64C18.73 23.91 18.73 27.61 16.42 29.89C14.11 32.16 10.36 32.16 8.05 29.89C5.74 27.61 5.74 23.91 8.05 21.64ZM24.79 5.13C27.1 2.86 30.84 2.86 33.15 5.13C35.47 7.41 35.47 11.11 33.15 13.39C30.84 15.66 27.1 15.66 24.79 13.39C22.47 11.11 22.47 7.41 24.79 5.13ZM14.69 29.17C14.69 25.95 17.34 23.34 20.6 23.34C23.87 23.34 26.52 25.95 26.52 29.17C26.52 32.39 23.87 35 20.6 35C17.34 35 14.69 32.39 14.69 29.17ZM14.69 5.83C14.69 2.61 17.34 0 20.6 0C23.87 0 26.52 2.61 26.52 5.83C26.52 9.06 23.87 11.67 20.6 11.67C17.34 11.67 14.69 9.06 14.69 5.83ZM24.79 29.87C22.47 27.59 22.47 23.9 24.79 21.62C27.1 19.34 30.84 19.34 33.15 21.62C35.47 23.9 35.47 27.59 33.15 29.87C30.84 32.15 27.1 32.15 24.79 29.87ZM8.05 13.37C5.74 11.09 5.74 7.4 8.05 5.12C10.36 2.84 14.11 2.84 16.42 5.12C18.73 7.4 18.73 11.09 16.42 13.37C14.11 15.65 10.36 15.65 8.05 13.37ZM32.43 23.32C29.16 23.32 26.51 20.71 26.51 17.49C26.51 14.27 29.16 11.66 32.43 11.66C35.7 11.66 38.35 14.27 38.35 17.49C38.35 20.71 35.7 23.32 32.43 23.32ZM8.76 23.32C5.49 23.32 2.84 20.71 2.84 17.49C2.84 14.27 5.49 11.66 8.76 11.66C12.02 11.66 14.67 14.27 14.67 17.49C14.67 20.71 12.02 23.32 8.76 23.32Z" />
		<path id="Ellipse 2" class="shp1" d="M20.59 7C26.47 7 31.24 11.7 31.24 17.5C31.24 23.3 26.47 28 20.59 28C14.71 28 9.95 23.3 9.95 17.5C9.95 11.7 14.71 7 20.59 7Z" />
		<path id="Shape 5" class="shp1" d="M21.47 56.7L20.42 55.65L34.37 41.82L35.42 42.87L21.47 56.7Z" />
		<path id="Shape 6" class="shp1" d="M21.63 55.12L20.59 56.86L3.15 39.58L4.2 37.83L21.63 55.12Z" />
		<path id="Ellipse 1" class="shp1" d="M49 29.95C49 29.95 48.01 44.37 43.76 48.58C39.5 52.8 33.02 53.21 29.27 49.5C25.53 45.79 25.94 39.36 30.2 35.14C34.45 30.92 49 29.95 49 29.95Z" />
		<path id="Ellipse 1" class="shp1" d="M0 36.4C0 36.4 0.72 46.91 3.84 49.98C6.95 53.06 11.7 53.36 14.44 50.65C17.19 47.95 16.88 43.26 13.77 40.18C10.65 37.11 0 36.4 0 36.4Z" />
	</g>
</svg>